<?xml version="1.0" encoding="utf-8"?>
<!-- Generator: Adobe Illustrator 26.3.1, SVG Export Plug-In . SVG Version: 6.00 Build 0)  -->
<svg version="1.1" id="Camada_2_00000029745320326358772390000010975799510307163800_"
	 xmlns="http://www.w3.org/2000/svg" xmlns:xlink="http://www.w3.org/1999/xlink" x="0px" y="0px" viewBox="0 0 1000 186.9"
	 style="enable-background:new 0 0 1000 186.9;" xml:space="preserve">
<style type="text/css">
	.st0{fill:#FFFFFF;}
</style>
<g id="logotipos">
	<g id="logoSubidoPRONegativo">
		<path class="st0" d="M594.7,0v186.9H1000V0H594.7z M724.3,91.6c-3.1,5.3-7.9,9.7-14.4,12.9c-6.5,3.3-14.5,4.9-24.1,4.9h-17.7v40
			h-28.6V37.9h46.3c9.4,0,17.3,1.5,23.7,4.6c6.5,3.1,11.3,7.3,14.5,12.7s4.8,11.6,4.8,18.6s-1.6,12.4-4.7,17.7L724.3,91.6z
			 M797,149.5l-24.4-42.1h-6.9v42.1h-28.6V37.9h48c9.3,0,17.1,1.5,23.7,4.6c6.5,3.1,11.4,7.3,14.6,12.6c3.2,5.4,4.8,11.3,4.8,17.9
			s-2.2,14-6.6,19.9c-4.4,5.8-10.9,10-19.5,12.4l27.1,44.2h-32.3H797z M947,122.9c-5.4,8.7-12.6,15.5-21.7,20.4
			c-9.1,4.9-19.2,7.3-30.3,7.3s-21.2-2.4-30.4-7.3c-9.2-4.9-16.5-11.7-21.9-20.4s-8.1-18.6-8.1-29.5s2.7-20.7,8.1-29.4
			c5.4-8.7,12.7-15.5,21.9-20.3c9.2-4.9,19.3-7.3,30.4-7.3s21.2,2.4,30.4,7.3s16.4,11.7,21.7,20.3c5.3,8.7,7.9,18.5,7.9,29.4
			S952.3,114.1,947,122.9L947,122.9z M895,61c-9.5,0-17,2.9-22.7,8.7c-5.6,5.8-8.4,13.7-8.4,23.7s2.8,17.7,8.4,23.6
			c5.6,5.9,13.2,8.8,22.7,8.8s16.9-3,22.5-8.9s8.4-13.8,8.4-23.5s-2.8-17.7-8.4-23.6C911.9,63.9,904.4,61,895,61z M765.8,60.5v27.6
			h17.7c5.2,0,9.2-1.2,11.8-3.7c2.6-2.4,3.9-5.9,3.9-10.3s-1.3-7.6-3.9-10c-2.6-2.4-6.6-3.7-11.8-3.7L765.8,60.5z M683.7,59.9h-15.6
			v28h15.6c5.5,0,9.5-1.2,12.2-3.7c2.7-2.4,4-5.9,4-10.3s-1.3-7.9-4-10.3C693.2,61.2,689.2,59.9,683.7,59.9z M157.9,108.2
			c0,5.1-1.4,9.1-4.2,12s-6.6,4.4-11.4,4.4s-8.4-1.5-11.3-4.4c-2.8-2.9-4.3-6.9-4.3-12V60.3H94.1v51.8c0,11.8,3.1,21.1,9.4,27.9
			s14.9,10.2,25.8,10.2s12-1.2,16.9-3.7s8.8-5.7,11.5-9.8v12.7h32.9V60.3h-32.9v47.8L157.9,108.2z M66.8,99.8
			c-4.5-1.7-10.2-3.2-17-4.6c-5.7-1.2-9.8-2.3-12.4-3.4c-2.6-1.1-3.8-2.7-3.8-4.8s0.7-3,2.1-4c1.4-1,3.4-1.4,6.1-1.4
			s6.2,0.8,8.3,2.3s3.4,3.7,3.9,6.6h29.6c-1.1-9.3-5.2-16.8-12.2-22.6c-7-5.7-16.7-8.6-28.9-8.6s-15.3,1.3-21.2,3.8
			C15.4,65.6,11,69.1,8,73.3c-3,4.3-4.5,9.1-4.5,14.4s1.6,11,4.9,14.6s7.2,6.2,11.6,7.8c4.5,1.6,10,3,16.7,4.3
			c5.9,1.3,10.1,2.4,12.7,3.5s3.8,2.7,3.8,4.9s-0.8,3.1-2.3,4.1c-1.6,1.1-3.7,1.6-6.4,1.6s-6.4-0.8-8.7-2.4s-3.7-3.8-4.2-6.7H0
			c0.4,5.9,2.6,11.3,6.4,16s9.1,8.4,15.7,11.1c6.6,2.7,14.2,4.1,22.7,4.1s14.8-1.2,20.7-3.6c5.9-2.4,10.4-5.6,13.5-9.8
			c3.2-4.1,4.8-8.8,4.8-14s-1.7-11.6-5.1-15.3C75.3,104.1,71.3,101.4,66.8,99.8L66.8,99.8z M285,64.8c-6.1-3.7-12.9-5.6-20.3-5.6
			s-11.9,1.2-16.6,3.6c-4.7,2.4-8.3,5.7-10.9,9.9V31.9h-32.8v117.6h32.8v-12.4c2.6,4.2,6.2,7.5,10.9,9.9s10.2,3.6,16.6,3.6
			s14.2-1.9,20.3-5.6c6.1-3.7,10.9-9,14.4-16c3.5-6.9,5.3-15,5.3-24.2s-1.8-17.3-5.3-24.1C295.9,73.8,291.1,68.5,285,64.8z
			 M266.4,118.4c-3.3,3.3-7.3,5-12.1,5s-8.8-1.6-12.1-4.9s-4.9-7.8-4.9-13.7s1.6-10.2,4.9-13.5c3.3-3.3,7.3-4.9,12.1-4.9
			c4.8,0,8.8,1.6,12.1,4.8c3.3,3.2,4.9,7.8,4.9,13.6S269.7,115,266.4,118.4z M421.7,72.6c-2.7-4.1-6.4-7.4-11.1-9.8
			c-4.7-2.4-10.1-3.6-16.1-3.6s-14.3,1.9-20.4,5.6c-6.1,3.7-11,9-14.5,15.9s-5.3,14.9-5.3,24.1s1.8,17.3,5.3,24.2
			c3.5,6.9,8.3,12.3,14.4,16s12.8,5.6,20.3,5.6s11.9-1.2,16.6-3.7c4.7-2.4,8.3-5.7,10.9-9.9v12.4h32.9V31.9h-32.9L421.7,72.6
			L421.7,72.6z M416.9,118.5c-3.3,3.3-7.3,4.9-12.1,4.9s-9-1.7-12.2-5s-4.8-7.9-4.8-13.6s1.6-10.4,4.8-13.6
			c3.2-3.2,7.3-4.8,12.2-4.8s8.8,1.6,12.1,4.9c3.3,3.3,4.9,7.8,4.9,13.5S420.2,115.2,416.9,118.5z M537.3,64.8
			c-7.4-3.7-15.8-5.6-25.2-5.6s-17.8,1.9-25.2,5.6c-7.4,3.7-13.3,9-17.6,15.9c-4.3,6.9-6.4,14.9-6.4,24.1s2.1,17.4,6.4,24.3
			c4.2,6.9,10.1,12.2,17.5,15.9s15.8,5.6,25.2,5.6c9.4,0,17.8-1.9,25.3-5.6c7.5-3.7,13.3-9,17.6-16c4.3-6.9,6.4-15,6.4-24.2
			s-2.1-17.3-6.4-24.1C550.6,73.8,544.8,68.5,537.3,64.8L537.3,64.8z M523.4,118.7c-3.1,3.2-6.9,4.8-11.5,4.8s-8.3-1.6-11.2-4.8
			c-2.9-3.2-4.3-7.8-4.3-14s1.5-10.6,4.5-13.8c3-3.2,6.7-4.8,11.2-4.8s8.2,1.6,11.3,4.8c3.1,3.2,4.6,7.8,4.6,13.8
			S526.5,115.4,523.4,118.7L523.4,118.7z M343.6,24.6c-3.5-3.1-8.1-4.6-13.8-4.6s-10.5,1.5-14,4.6s-5.3,6.9-5.3,11.6
			s1.8,8.3,5.3,11.4c3.5,3,8.2,4.5,14,4.5s10.3-1.5,13.8-4.5s5.3-6.8,5.3-11.4S347.1,27.7,343.6,24.6z M313.2,149.5H346V60.3h-32.8
			v89.1V149.5z"/>
	</g>
</g>
</svg>
