<?xml version="1.0" encoding="UTF-8"?><svg id="Camada_2" xmlns="http://www.w3.org/2000/svg" xmlns:xlink="http://www.w3.org/1999/xlink" viewBox="0 0 1000 186.9"><defs><linearGradient id="Gradiente_sem_nome_12" x1="797.4" y1="150.6" x2="797.4" y2="36.4" gradientTransform="matrix(1, 0, 0, 1, 0, 0)" gradientUnits="userSpaceOnUse"><stop offset="0" stop-color="#ccc"/><stop offset=".8" stop-color="#fff"/></linearGradient></defs><g id="logotipos"><g id="logoSubidoPROCorPositivo"><path d="M594.7,0h405.3V186.9h-405.3V0Z" fill="#1c46a0" fill-rule="evenodd"/><path d="M709.7,47.4c-6.5-3.1-14.4-4.6-23.7-4.6h-46.3v111.5h28.6v-40h17.7c9.6,0,17.6-1.6,24.1-4.9,6.5-3.3,11.3-7.6,14.4-12.9,3.1-5.3,4.7-11.3,4.7-17.7s-1.6-13.2-4.8-18.6c-3.2-5.4-8.1-9.6-14.5-12.7Zm-13.7,41.6c-2.7,2.4-6.7,3.7-12.2,3.7h-15.6v-28h15.6c5.5,0,9.5,1.2,12.2,3.7,2.7,2.4,4,5.9,4,10.3s-1.3,7.9-4,10.3Zm251.3-20.2c-5.3-8.7-12.5-15.5-21.7-20.3-9.2-4.9-19.3-7.3-30.4-7.3s-21.2,2.4-30.4,7.3c-9.2,4.9-16.5,11.7-21.9,20.3s-8.1,18.5-8.1,29.4,2.7,20.7,8.1,29.5,12.7,15.5,21.9,20.4c9.2,4.9,19.3,7.3,30.4,7.3s21.1-2.4,30.3-7.3c9.1-4.9,16.4-11.7,21.7-20.4s8-18.6,8-29.5-2.6-20.7-7.9-29.4Zm-29.6,52.9c-5.6,5.9-13.1,8.9-22.5,8.9s-17-2.9-22.7-8.8c-5.6-5.9-8.4-13.7-8.4-23.6s2.8-17.8,8.4-23.7c5.6-5.8,13.2-8.7,22.7-8.7s16.9,2.9,22.5,8.8c5.6,5.9,8.4,13.7,8.4,23.6s-2.8,17.6-8.4,23.5Zm-95.8-24c4.4-5.8,6.6-12.4,6.6-19.9s-1.6-12.5-4.8-17.9c-3.2-5.3-8.1-9.6-14.6-12.6-6.5-3.1-14.4-4.6-23.7-4.6h-48v111.5h28.6v-42.1h6.9l24.4,42.1h32.3l-27.1-44.2c8.6-2.4,15.1-6.6,19.5-12.4Zm-26.4-8.4c-2.6,2.4-6.6,3.7-11.8,3.7h-17.7v-27.6h17.7c5.2,0,9.2,1.2,11.8,3.7,2.6,2.4,3.9,5.8,3.9,10s-1.3,7.9-3.9,10.3Z" opacity=".2"/><path d="M947.2,64c-5.3-8.7-12.5-15.5-21.7-20.3-9.2-4.9-19.3-7.3-30.4-7.3s-21.2,2.4-30.4,7.3c-9.2,4.9-16.5,11.7-21.9,20.3-5.4,8.7-8.1,18.5-8.1,29.4s2.7,20.7,8.1,29.5c5.4,8.7,12.7,15.5,21.9,20.4,9.2,4.9,19.3,7.3,30.4,7.3s21.1-2.4,30.3-7.3c9.1-4.9,16.4-11.7,21.7-20.4,5.4-8.7,8-18.6,8-29.5s-2.6-20.7-7.9-29.4Zm-29.6,52.9c-5.6,5.9-13.1,8.9-22.5,8.9s-17-2.9-22.7-8.8c-5.6-5.9-8.4-13.7-8.4-23.6s2.8-17.8,8.4-23.7c5.6-5.8,13.2-8.7,22.7-8.7s16.9,2.9,22.5,8.8c5.6,5.9,8.4,13.7,8.4,23.6s-2.8,17.6-8.4,23.5Zm-95.8-24c4.4-5.8,6.6-12.4,6.6-19.9s-1.6-12.5-4.8-17.9c-3.2-5.3-8.1-9.6-14.6-12.6-6.5-3.1-14.4-4.6-23.7-4.6h-48v111.5h28.6v-42.1h6.9l24.4,42.1h32.3l-27.1-44.2c8.6-2.4,15.1-6.6,19.5-12.4Zm-26.4-8.4c-2.6,2.4-6.6,3.7-11.8,3.7h-17.7v-27.6h17.7c5.2,0,9.2,1.2,11.8,3.7,2.6,2.4,3.9,5.8,3.9,10s-1.3,7.9-3.9,10.3Zm-85.7-41.9c-6.5-3.1-14.4-4.6-23.7-4.6h-46.3v111.5h28.6v-40h17.7c9.6,0,17.6-1.6,24.1-4.9,6.5-3.3,11.3-7.6,14.4-12.9,3.1-5.3,4.7-11.3,4.7-17.7s-1.6-13.2-4.8-18.6c-3.2-5.4-8.1-9.6-14.5-12.7Zm-13.7,41.6c-2.7,2.4-6.7,3.7-12.2,3.7h-15.6v-28h15.6c5.5,0,9.5,1.2,12.2,3.7,2.7,2.4,4,5.9,4,10.3s-1.3,7.9-4,10.3Z" fill="url(#Gradiente_sem_nome_12)"/><path d="M66.8,99.7c-4.5-1.7-10.2-3.2-17-4.6-5.7-1.2-9.8-2.3-12.4-3.4-2.6-1.1-3.8-2.7-3.8-4.8s.7-3,2.1-4c1.4-1,3.4-1.4,6.1-1.4s6.2,.8,8.3,2.3c2.1,1.5,3.4,3.7,3.9,6.6h29.6c-1.1-9.3-5.2-16.8-12.2-22.6-7-5.7-16.7-8.6-28.9-8.6s-15.3,1.3-21.2,3.8-10.3,6-13.3,10.2c-3,4.3-4.5,9.1-4.5,14.4s1.6,11,4.9,14.6c3.3,3.6,7.2,6.2,11.6,7.8,4.5,1.6,10,3,16.7,4.3,5.9,1.3,10.1,2.4,12.7,3.5,2.6,1.1,3.8,2.7,3.8,4.9s-.8,3.1-2.3,4.1c-1.6,1.1-3.7,1.6-6.4,1.6s-6.4-.8-8.7-2.4c-2.3-1.6-3.7-3.8-4.2-6.7H0c.4,5.9,2.6,11.3,6.4,16,3.8,4.7,9.1,8.4,15.7,11.1,6.6,2.7,14.2,4.1,22.7,4.1s14.8-1.2,20.7-3.6c5.9-2.4,10.4-5.6,13.5-9.8,3.2-4.1,4.8-8.8,4.8-14s-1.7-11.6-5.1-15.3c-3.4-3.8-7.4-6.5-11.9-8.2Zm91.1,8.4c0,5.1-1.4,9.1-4.2,12-2.8,2.9-6.6,4.4-11.4,4.4s-8.4-1.5-11.3-4.4c-2.8-2.9-4.3-6.9-4.3-12V60.3h-32.6v51.8c0,11.8,3.1,21.1,9.4,27.9,6.3,6.8,14.9,10.2,25.8,10.2s12-1.2,16.9-3.7c4.9-2.5,8.8-5.7,11.5-9.8v12.7h32.9V60.3h-32.9v47.8Zm127.2-43.4c-6.1-3.7-12.9-5.6-20.3-5.6s-11.9,1.2-16.6,3.6c-4.7,2.4-8.3,5.7-10.9,9.9V31.9h-32.8v117.6h32.8v-12.4c2.6,4.2,6.2,7.5,10.9,9.9,4.7,2.4,10.2,3.6,16.6,3.6s14.2-1.9,20.3-5.6c6.1-3.7,10.9-9,14.4-16s5.3-15,5.3-24.2-1.8-17.3-5.3-24.1c-3.5-6.9-8.3-12.2-14.4-15.9Zm-18.6,53.6c-3.3,3.3-7.3,5-12.1,5s-8.8-1.6-12.1-4.9c-3.3-3.3-4.9-7.8-4.9-13.7s1.6-10.2,4.9-13.5c3.3-3.3,7.3-4.9,12.1-4.9s8.8,1.6,12.1,4.8c3.3,3.2,4.9,7.8,4.9,13.6s-1.6,10.2-4.9,13.6Zm288.5-37.7c-4.3-6.9-10.1-12.2-17.6-15.9-7.4-3.7-15.8-5.6-25.2-5.6s-17.8,1.9-25.2,5.6c-7.4,3.7-13.3,9-17.6,15.9-4.3,6.9-6.4,14.9-6.4,24.1s2.1,17.4,6.4,24.3c4.2,6.9,10.1,12.2,17.5,15.9,7.4,3.7,15.8,5.6,25.2,5.6s17.8-1.9,25.3-5.6c7.5-3.7,13.3-9,17.6-16,4.3-6.9,6.4-15,6.4-24.2s-2.1-17.3-6.4-24.1Zm-31.4,38.1c-3.1,3.2-6.9,4.8-11.5,4.8s-8.3-1.6-11.2-4.8c-2.9-3.2-4.3-7.8-4.3-14s1.5-10.6,4.5-13.8c3-3.2,6.7-4.8,11.2-4.8s8.2,1.6,11.3,4.8c3.1,3.2,4.6,7.8,4.6,13.8s-1.5,10.7-4.6,13.9Zm-101.8-46.2c-2.7-4.1-6.4-7.4-11.1-9.8-4.7-2.4-10.1-3.6-16.1-3.6s-14.3,1.9-20.4,5.6c-6.1,3.7-11,9-14.5,15.9-3.5,6.9-5.3,14.9-5.3,24.1s1.8,17.3,5.3,24.2c3.5,6.9,8.3,12.3,14.4,16,6.1,3.7,12.8,5.6,20.3,5.6s11.9-1.2,16.6-3.7c4.7-2.4,8.3-5.7,10.9-9.9v12.4h32.9V31.9h-32.9v40.7Zm-4.8,45.9c-3.3,3.3-7.3,4.9-12.1,4.9s-9-1.7-12.2-5c-3.2-3.3-4.8-7.9-4.8-13.6s1.6-10.4,4.8-13.6c3.2-3.2,7.3-4.8,12.2-4.8s8.8,1.6,12.1,4.9c3.3,3.3,4.9,7.8,4.9,13.5s-1.6,10.4-4.9,13.7ZM343.6,24.6c-3.5-3.1-8.1-4.6-13.8-4.6s-10.5,1.5-14,4.6c-3.5,3.1-5.3,6.9-5.3,11.6s1.8,8.3,5.3,11.4c3.5,3,8.2,4.5,14,4.5s10.3-1.5,13.8-4.5c3.5-3,5.3-6.8,5.3-11.4s-1.8-8.5-5.3-11.6Zm-30.4,124.9h32.8V60.3h-32.8v89.1Z"/></g></g></svg>